<svg width="425" height="312" viewBox="0 0 425 312" fill="none" xmlns="http://www.w3.org/2000/svg">
<path d="M0.416016 174.08V135.701L60.4746 4.30469H106.031V141.121H125.221V174.08H106.031V217H67.6523V174.08H0.416016ZM28.248 141.121H67.6523V53.2305L28.248 141.121Z" fill="#00A6BE"/>
<path d="M152.027 164.559V56.7461C152.027 40.0469 157.74 26.4727 169.166 16.0234C180.689 5.57422 194.947 0.349609 211.939 0.349609C230.006 0.349609 244.361 5.42773 255.006 15.584C265.748 25.6426 271.119 39.3633 271.119 56.7461V164.559C271.119 182.039 265.748 196.004 255.006 206.453C244.264 216.902 229.908 222.127 211.939 222.127C195.045 222.127 180.836 216.756 169.312 206.014C157.789 195.174 152.027 181.355 152.027 164.559ZM190.406 168.074C190.406 174.324 192.506 179.402 196.705 183.309C200.904 187.215 205.982 189.168 211.939 189.168C217.506 189.168 222.34 187.068 226.441 182.869C230.641 178.572 232.74 173.25 232.74 166.902V52.9375C232.74 46.7852 230.689 42 226.588 38.582C222.584 35.1641 217.701 33.4551 211.939 33.4551C205.982 33.4551 200.904 35.2617 196.705 38.875C192.506 42.3906 190.406 47.1758 190.406 53.2305V168.074Z" fill="#00A6BE"/>
<path d="M299.83 174.08V135.701L359.889 4.30469H405.445V141.121H424.635V174.08H405.445V217H367.066V174.08H299.83ZM327.662 141.121H367.066V53.2305L327.662 141.121Z" fill="#00A6BE"/>
<path d="M296.162 287.935C296.162 287.935 275.147 272.197 261.681 262.113C263.744 254.717 260.214 248.651 258.761 246.738C257.309 244.826 255.479 243.232 253.385 242.055C251.292 240.878 248.979 240.143 246.59 239.896C244.201 239.649 241.787 239.895 239.496 240.618L234.551 232.7L238.276 230.374C239.263 229.757 239.965 228.773 240.228 227.639C240.49 226.504 240.291 225.312 239.674 224.324L235.023 216.876L233.07 219.611C234.058 218.995 234.76 218.011 235.023 216.876C235.285 215.741 235.086 214.549 234.469 213.562L225.166 198.665C224.549 197.678 223.565 196.975 222.431 196.713C221.296 196.451 220.104 196.65 219.116 197.267L198.724 208.486C197.736 209.102 197.034 210.086 196.772 211.221C196.51 212.355 196.709 213.548 197.326 214.535L206.628 229.432C207.245 230.419 208.229 231.122 209.364 231.384C210.498 231.646 211.69 231.447 212.678 230.83L217.329 238.278C217.946 239.266 218.93 239.968 220.065 240.23C221.199 240.493 222.392 240.293 223.379 239.677L227.103 237.351L234.08 248.523C234.697 249.511 235.681 250.213 236.816 250.475C237.95 250.738 239.142 250.538 240.13 249.922C241.603 249.002 243.316 248.539 245.052 248.593C246.788 248.646 248.469 249.213 249.883 250.222C251.296 251.231 252.379 252.637 252.994 254.261C253.609 255.885 253.728 257.655 253.337 259.348C252.946 261.04 252.062 262.578 250.796 263.767C249.531 264.957 247.941 265.745 246.228 266.031C244.515 266.317 242.756 266.089 241.173 265.375C239.589 264.662 238.253 263.494 237.333 262.021C236.716 261.034 235.733 260.331 234.598 260.069C233.463 259.807 232.271 260.006 231.283 260.623C230.296 261.24 229.594 262.223 229.331 263.358C229.069 264.493 229.268 265.685 229.885 266.673C230.87 268.249 232.1 269.659 233.528 270.849C233.528 270.849 237.324 273.844 241.627 274.636C267.871 279.273 296.162 287.935 296.162 287.935ZM211.751 221.056L207.1 213.608L220.044 207.041L224.695 214.489L211.751 221.056ZM222.452 229.903L220.126 226.179L227.574 221.527L229.9 225.251L222.452 229.903ZM241.627 274.636C247.022 275.59 250.373 274.584 254.084 272.266C257.795 269.949 260.505 266.327 261.681 262.113C275.147 272.197 296.162 287.935 296.162 287.935C296.162 287.935 267.871 279.273 241.627 274.636Z" fill="#00A6BE"/>
</svg>
