<svg width="206" height="260" viewBox="0 0 206 260" fill="none" xmlns="http://www.w3.org/2000/svg">
<path opacity="0.4" fill-rule="evenodd" clip-rule="evenodd" d="M202.021 0.387571C200.123 -0.39903 197.939 0.0361648 196.486 1.488L180.577 17.3972L164.669 1.488C163.716 0.535852 162.425 0.000617907 161.078 0.000617907C159.731 0.000617907 158.44 0.535852 157.487 1.488L141.577 17.3972L125.669 1.488C124.716 0.535852 123.425 0.000617907 122.078 0.000617907C120.731 0.000617907 119.44 0.535852 118.487 1.488L102.577 17.3972L86.6682 1.488C85.7155 0.535852 84.4242 0.000617907 83.0775 0.000617907C81.7307 0.000617907 80.4394 0.535852 79.4867 1.488L63.5775 17.3972L47.6683 1.488C46.7156 0.535852 45.4242 0.000617907 44.0775 0.000617907C42.7308 0.000617907 41.4389 0.535852 40.4868 1.488L24.5781 17.3967L8.66885 1.48749C7.21651 0.0351491 5.03191 -0.399538 3.13472 0.387063C1.23754 1.17316 0 3.02515 0 5.07874V104.864C0 107.668 2.27398 109.942 5.07811 109.942C7.88225 109.942 10.1562 107.668 10.1562 104.864V17.3383L20.9873 28.1695C21.94 29.1216 23.2314 29.6569 24.5781 29.6569C25.9248 29.6569 27.2162 29.1216 28.1688 28.1695L44.0775 12.2602L59.9873 28.1695C60.9399 29.1216 62.2313 29.6569 63.578 29.6569C64.9247 29.6569 66.2166 29.1216 67.1687 28.1695L83.0775 12.2602L98.9862 28.1695C100.97 30.1525 104.185 30.1525 106.168 28.1695L122.077 12.2602L137.986 28.1695C138.938 29.1216 140.23 29.6569 141.577 29.6569C142.924 29.6569 144.215 29.1216 145.168 28.1695L161.077 12.2602L176.986 28.1695C177.938 29.1216 179.23 29.6569 180.576 29.6569C181.923 29.6569 183.214 29.1216 184.167 28.1695L194.998 17.3383V242.663L184.167 231.832C183.214 230.879 181.923 230.344 180.576 230.344C179.23 230.344 177.938 230.879 176.986 231.832L161.077 247.741L145.168 231.832C144.215 230.879 142.924 230.344 141.577 230.344C140.23 230.344 138.938 230.879 137.986 231.832L122.077 247.741L106.168 231.832C104.184 229.849 100.97 229.849 98.9862 231.832L83.0769 247.741L67.1682 231.832C66.2161 230.879 64.9242 230.344 63.5775 230.344C62.2308 230.344 60.9394 230.879 59.9868 231.832L44.0775 247.741L28.1688 231.832C27.2162 230.879 25.9248 230.344 24.5781 230.344C23.2314 230.344 21.94 230.879 20.9873 231.832L10.1572 242.662V152.344C10.1572 149.539 7.88327 147.266 5.07913 147.266C2.275 147.266 0.00101471 149.539 0.00101471 152.344V254.922C0.00101471 256.976 1.23855 258.827 3.13573 259.614C5.03292 260.4 7.21752 259.965 8.66986 258.513L24.5791 242.604L40.4878 258.513C41.44 259.465 42.7318 260 44.0785 260C45.4253 260 46.7166 259.465 47.6693 258.513L63.5785 242.604L79.4872 258.513C80.4399 259.465 81.7312 260 83.078 260C84.4247 260 85.716 259.465 86.6687 258.513L102.578 242.604L118.487 258.513C119.44 259.465 120.731 260 122.078 260C123.425 260 124.716 259.465 125.669 258.513L141.577 242.604L157.487 258.513C158.44 259.465 159.731 260 161.078 260C162.425 260 163.716 259.465 164.669 258.513L180.577 242.604L196.487 258.513C197.458 259.485 198.757 260 200.079 260C200.733 260 201.393 259.874 202.021 259.615C203.918 258.828 205.155 256.976 205.155 254.923V5.07925C205.155 3.02515 203.918 1.17366 202.021 0.387571ZM102.643 81.9619C96.0959 81.9619 90.77 77.3388 90.77 71.6569C90.77 65.975 96.0959 61.3519 102.643 61.3519C109.189 61.3519 114.515 65.975 114.515 71.6569C114.515 74.4615 116.789 76.735 119.593 76.735C122.397 76.735 124.671 74.4615 124.671 71.6569C124.671 61.9978 117.426 53.8866 107.721 51.7502V46.7452C107.721 43.9406 105.447 41.6671 102.643 41.6671C99.8385 41.6671 97.5645 43.9406 97.5645 46.7452V51.7502C87.8587 53.8866 80.6138 61.9978 80.6138 71.6569C80.6138 82.9395 90.4958 92.1182 102.643 92.1182C109.189 92.1182 114.515 96.7413 114.515 102.424C114.515 108.106 109.189 112.729 102.643 112.729C96.0959 112.729 90.77 108.106 90.77 102.424C90.77 99.619 88.496 97.3456 85.6919 97.3456C82.8878 97.3456 80.6138 99.619 80.6138 102.424C80.6138 112.083 87.8587 120.194 97.5645 122.33V126.388C97.5645 129.192 99.8385 131.466 102.643 131.466C105.447 131.466 107.721 129.192 107.721 126.388V122.33C117.426 120.194 124.671 112.083 124.671 102.424C124.671 91.1406 114.789 81.9619 102.643 81.9619ZM140.222 203.465C141.558 203.465 142.868 204.003 143.813 204.953C144.757 205.898 145.301 207.203 145.301 208.543C145.301 209.879 144.757 211.189 143.813 212.133C142.868 213.078 141.557 213.621 140.222 213.621C138.887 213.621 137.577 213.078 136.632 212.133C135.683 211.189 135.144 209.879 135.144 208.543C135.144 207.203 135.683 205.892 136.632 204.953C137.577 204.003 138.887 203.465 140.222 203.465ZM118.034 203.463H65.0646C62.2605 203.463 59.9865 205.737 59.9865 208.542C59.9865 211.346 62.2605 213.62 65.0646 213.62H118.033C120.838 213.62 123.112 211.346 123.112 208.542C123.112 205.737 120.838 203.463 118.034 203.463ZM65.0646 172.995H140.221C143.025 172.995 145.299 175.268 145.299 178.073C145.299 180.878 143.025 183.151 140.221 183.151H65.0646C62.2605 183.151 59.9865 180.878 59.9865 178.073C59.9865 175.268 62.2605 172.995 65.0646 172.995ZM140.221 142.526H65.0646C62.2605 142.526 59.9865 144.8 59.9865 147.604C59.9865 150.409 62.2605 152.682 65.0646 152.682H140.221C143.025 152.682 145.299 150.409 145.299 147.604C145.299 144.8 143.025 142.526 140.221 142.526ZM5.07811 124.922C6.41366 124.922 7.72381 125.466 8.66783 126.41C9.61236 127.355 10.1562 128.665 10.1562 130C10.1562 131.336 9.61287 132.646 8.66783 133.591C7.72381 134.535 6.41366 135.079 5.07811 135.079C3.74257 135.079 2.43242 134.535 1.48789 133.591C0.543358 132.646 0 131.336 0 130C0 128.665 0.54285 127.355 1.48789 126.41C2.43242 125.466 3.74257 124.922 5.07811 124.922Z" fill="#E7F7F9"/>
</svg>
