<svg id="svg" version="1.1" xmlns="http://www.w3.org/2000/svg" xmlns:xlink="http://www.w3.org/1999/xlink" width="400" height="400" viewBox="0, 0, 400,400"><g id="svgg"><path id="path0" d="M344.618 1.018 C 344.058 1.578,343.600 2.208,343.600 2.418 C 343.600 2.628,343.325 2.800,342.989 2.800 C 342.136 2.800,338.707 6.293,339.317 6.541 C 339.583 6.649,339.471 6.751,339.069 6.768 C 338.666 6.786,337.631 7.513,336.769 8.384 C 335.906 9.256,335.200 9.867,335.200 9.742 C 335.200 9.617,334.705 10.030,334.100 10.659 C 333.495 11.288,332.370 12.283,331.600 12.871 C 329.227 14.682,326.808 17.075,327.077 17.344 C 327.218 17.485,327.033 17.600,326.667 17.600 C 326.300 17.600,326.000 17.735,326.000 17.900 C 326.000 18.395,323.102 21.365,321.600 22.409 C 320.830 22.944,319.345 24.232,318.300 25.272 C 317.255 26.311,316.400 27.077,316.400 26.973 C 316.400 26.869,315.064 28.092,313.431 29.692 C 305.150 37.803,298.936 43.596,298.500 43.610 C 297.967 43.627,293.230 48.297,293.486 48.553 C 293.622 48.689,293.513 48.800,293.243 48.800 C 292.973 48.800,292.867 48.984,293.006 49.210 C 293.145 49.435,293.094 49.570,292.891 49.510 C 292.688 49.449,292.000 49.947,291.361 50.615 C 290.723 51.284,289.570 52.272,288.800 52.812 C 288.030 53.352,286.005 55.181,284.300 56.878 C 282.595 58.575,281.200 59.874,281.200 59.766 C 281.200 59.658,280.435 60.341,279.500 61.285 C 278.565 62.228,277.303 63.359,276.695 63.799 C 276.087 64.238,275.673 64.814,275.775 65.078 C 275.892 65.383,275.723 65.469,275.314 65.312 C 274.884 65.147,274.765 65.220,274.958 65.532 C 275.117 65.789,275.051 66.000,274.810 66.000 C 274.218 66.000,271.600 68.653,271.600 69.253 C 271.600 69.517,271.488 69.621,271.351 69.485 C 271.215 69.348,270.419 69.948,269.583 70.818 C 268.747 71.688,267.872 72.400,267.638 72.400 C 267.404 72.400,265.095 74.484,262.507 77.032 C 259.918 79.579,257.260 82.052,256.600 82.526 C 255.940 83.000,253.288 85.509,250.706 88.100 C 248.124 90.692,245.874 92.823,245.706 92.838 C 245.135 92.886,241.221 96.688,241.478 96.945 C 241.618 97.085,241.513 97.200,241.245 97.200 C 240.976 97.200,239.731 98.239,238.478 99.510 C 237.225 100.780,235.570 102.263,234.800 102.805 C 232.611 104.346,229.203 107.908,229.168 108.691 C 229.148 109.146,229.062 109.213,228.928 108.878 C 228.787 108.525,228.244 108.851,227.259 109.878 C 226.457 110.715,224.904 112.121,223.809 113.000 C 221.117 115.163,219.200 117.081,219.200 117.610 C 219.200 117.851,218.989 117.917,218.732 117.758 C 218.415 117.562,218.349 117.689,218.527 118.155 C 218.680 118.554,218.629 118.742,218.405 118.603 C 218.192 118.472,217.058 119.317,215.884 120.482 C 214.036 122.316,212.007 124.032,210.740 124.832 C 210.538 124.960,210.486 125.410,210.624 125.832 C 210.812 126.406,210.776 126.461,210.482 126.049 C 210.021 125.401,209.200 125.784,209.200 126.647 C 209.200 127.003,209.010 127.130,208.732 126.958 C 208.415 126.762,208.349 126.889,208.527 127.355 C 208.685 127.765,208.631 127.942,208.394 127.796 C 208.175 127.661,207.142 128.417,206.098 129.475 C 205.054 130.534,203.496 131.926,202.636 132.569 C 200.751 133.978,193.600 141.076,193.600 141.538 C 193.600 141.718,193.108 142.120,192.506 142.432 C 191.007 143.210,190.084 144.006,185.594 148.400 C 183.458 150.490,180.929 152.830,179.973 153.600 C 176.721 156.221,175.464 157.663,176.061 158.090 C 176.473 158.385,176.440 158.424,175.920 158.258 C 175.469 158.114,174.590 158.674,173.313 159.920 C 172.253 160.954,170.580 162.430,169.595 163.200 C 166.892 165.313,163.535 168.771,163.789 169.182 C 163.912 169.381,163.802 169.675,163.545 169.834 C 163.252 170.015,163.184 169.950,163.362 169.662 C 163.519 169.408,163.457 169.200,163.224 169.200 C 162.991 169.200,162.800 169.500,162.800 169.867 C 162.800 170.233,162.686 170.420,162.547 170.281 C 162.266 170.000,160.000 172.278,160.000 172.842 C 160.000 173.039,159.721 173.200,159.381 173.200 C 159.040 173.200,157.870 174.091,156.781 175.181 C 155.691 176.270,154.800 177.078,154.800 176.975 C 154.800 176.871,153.478 178.095,151.862 179.694 C 150.246 181.292,148.143 183.185,147.189 183.900 C 146.235 184.615,145.667 185.200,145.927 185.200 C 146.187 185.200,146.400 185.374,146.400 185.587 C 146.400 185.801,146.125 185.869,145.788 185.740 C 145.435 185.604,144.865 185.863,144.441 186.353 C 143.434 187.514,142.773 187.413,141.600 185.919 C 139.929 183.791,134.253 178.193,133.885 178.310 C 133.696 178.370,133.652 178.240,133.787 178.021 C 134.067 177.568,128.202 171.532,127.837 171.897 C 127.706 172.027,127.600 171.917,127.600 171.653 C 127.600 171.389,127.015 170.564,126.300 169.819 C 125.585 169.074,124.370 167.689,123.600 166.740 C 120.454 162.863,115.853 158.390,115.532 158.897 C 115.305 159.254,115.210 159.188,115.206 158.669 C 115.203 158.266,114.519 157.276,113.687 156.469 C 112.855 155.661,111.733 154.370,111.194 153.600 C 110.654 152.830,109.670 151.644,109.007 150.964 C 108.343 150.284,106.953 148.784,105.918 147.629 C 104.744 146.319,103.856 145.642,103.557 145.827 C 103.255 146.013,103.181 145.954,103.358 145.668 C 103.517 145.411,103.022 144.596,102.220 143.793 C 101.439 143.012,100.800 142.511,100.800 142.680 C 100.800 142.848,100.325 142.286,99.744 141.432 C 99.163 140.577,97.048 138.205,95.044 136.161 C 93.040 134.116,90.500 131.429,89.400 130.190 C 88.300 128.950,85.059 125.566,82.198 122.668 C 79.336 119.771,76.562 116.770,76.032 116.000 C 75.502 115.230,72.848 112.392,70.134 109.693 C 67.420 106.994,65.200 104.646,65.200 104.474 C 65.200 103.820,57.702 96.400,57.042 96.400 C 56.660 96.400,55.505 97.260,54.474 98.311 C 53.443 99.362,51.970 100.664,51.200 101.204 C 49.520 102.382,43.600 108.331,43.600 108.840 C 43.600 109.038,43.375 109.155,43.100 109.100 C 42.825 109.045,42.645 109.225,42.700 109.500 C 42.755 109.775,42.628 110.000,42.418 110.000 C 42.208 110.000,41.623 110.405,41.118 110.901 C 40.613 111.397,39.390 112.432,38.401 113.201 C 35.737 115.273,33.131 117.965,33.388 118.380 C 33.512 118.581,33.402 118.875,33.145 119.034 C 32.852 119.215,32.784 119.150,32.962 118.862 C 33.611 117.811,32.638 118.546,30.263 120.900 C 28.875 122.275,26.698 124.300,25.425 125.400 C 21.433 128.849,20.732 129.567,20.976 129.961 C 21.106 130.172,21.002 130.475,20.745 130.634 C 20.452 130.815,20.384 130.750,20.562 130.462 C 21.210 129.412,20.239 130.145,17.858 132.500 C 16.469 133.875,14.807 135.407,14.166 135.904 C 12.028 137.563,8.400 141.330,8.400 141.892 C 8.400 142.198,8.229 142.342,8.020 142.212 C 7.811 142.083,6.685 142.928,5.518 144.089 C 4.351 145.250,2.662 146.776,1.764 147.481 C -0.921 149.589,-0.723 151.262,2.603 154.588 C 4.031 156.017,5.200 157.283,5.200 157.403 C 5.200 157.523,5.965 158.415,6.900 159.386 C 7.835 160.356,10.400 163.080,12.600 165.440 C 14.800 167.799,18.715 171.877,21.300 174.501 C 23.885 177.126,26.000 179.436,26.000 179.636 C 26.000 179.836,26.251 180.000,26.557 180.000 C 26.864 180.000,27.231 180.304,27.373 180.675 C 27.886 182.009,31.011 185.561,31.521 185.387 C 31.807 185.289,31.932 185.386,31.799 185.602 C 31.511 186.067,38.899 193.368,39.276 192.991 C 39.362 192.905,39.458 193.180,39.490 193.602 C 39.522 194.024,40.325 195.176,41.274 196.162 C 42.223 197.148,44.980 200.041,47.400 202.591 C 56.050 211.706,57.171 212.800,57.881 212.832 C 58.330 212.851,58.406 212.941,58.082 213.071 C 57.725 213.214,57.942 213.640,58.778 214.439 C 59.446 215.078,59.907 215.600,59.802 215.600 C 59.488 215.600,63.086 219.431,68.607 224.973 C 71.471 227.848,74.257 230.830,74.798 231.600 C 76.448 233.949,82.412 240.226,84.679 242.000 C 85.100 242.330,85.873 243.214,86.396 243.965 C 87.606 245.701,92.807 251.002,93.600 251.307 C 93.963 251.446,94.003 251.549,93.703 251.568 C 93.429 251.586,94.464 252.874,96.003 254.431 C 97.541 255.987,98.800 257.440,98.800 257.658 C 98.800 257.877,99.202 257.941,99.700 257.801 C 100.339 257.621,100.440 257.658,100.048 257.929 C 99.404 258.375,104.533 263.813,105.205 263.397 C 105.421 263.263,105.486 263.432,105.353 263.779 C 105.184 264.219,105.360 264.400,105.957 264.400 C 106.457 264.400,106.800 264.656,106.800 265.029 C 106.800 265.774,107.797 266.869,108.152 266.514 C 108.289 266.378,108.400 266.567,108.400 266.933 C 108.400 267.300,108.580 267.600,108.800 267.600 C 109.020 267.600,109.155 267.825,109.100 268.100 C 109.045 268.375,109.301 268.577,109.668 268.550 C 110.082 268.519,110.256 268.709,110.125 269.050 C 109.886 269.673,116.907 276.959,117.335 276.532 C 117.481 276.386,117.600 276.494,117.600 276.773 C 117.600 277.051,118.102 277.756,118.715 278.340 C 119.329 278.923,120.273 280.029,120.813 280.799 C 121.353 281.568,123.096 283.548,124.686 285.199 C 126.277 286.849,128.106 288.763,128.752 289.451 C 129.397 290.139,130.269 290.949,130.688 291.251 C 131.107 291.553,131.889 292.420,132.425 293.179 C 134.049 295.475,136.782 298.058,137.270 297.757 C 137.549 297.584,137.613 297.655,137.436 297.941 C 137.025 298.606,138.166 299.600,139.341 299.600 C 140.069 299.600,141.473 298.488,144.520 295.500 C 146.820 293.245,149.170 291.062,149.743 290.650 C 150.316 290.237,150.671 289.714,150.531 289.488 C 150.386 289.254,150.472 289.197,150.728 289.356 C 151.323 289.723,157.484 284.120,159.164 281.684 C 159.475 281.234,160.192 280.626,160.757 280.333 C 162.042 279.667,167.039 274.732,166.890 274.276 C 166.830 274.092,166.951 274.046,167.159 274.175 C 167.367 274.303,168.444 273.526,169.553 272.446 C 170.661 271.367,172.063 270.094,172.668 269.618 C 173.588 268.894,173.673 268.684,173.185 268.338 C 172.710 268.002,172.735 267.968,173.319 268.157 C 173.851 268.329,175.071 267.350,178.005 264.395 C 180.187 262.198,182.158 260.400,182.386 260.400 C 182.614 260.400,182.800 260.220,182.800 260.000 C 182.800 259.780,182.979 259.600,183.198 259.600 C 183.819 259.600,191.600 252.261,191.600 251.676 C 191.600 251.509,192.151 251.047,192.824 250.649 C 193.498 250.251,196.017 248.008,198.422 245.663 C 200.827 243.318,203.426 240.887,204.197 240.261 C 204.968 239.635,205.481 238.932,205.338 238.699 C 205.183 238.449,205.268 238.395,205.546 238.567 C 205.836 238.746,207.576 237.277,210.093 234.729 C 212.335 232.458,214.285 230.636,214.426 230.680 C 214.812 230.802,221.015 224.722,220.900 224.335 C 220.845 224.151,221.025 224.045,221.300 224.100 C 221.575 224.155,221.755 223.975,221.700 223.700 C 221.645 223.425,221.743 223.245,221.919 223.300 C 222.419 223.457,225.700 220.600,230.648 215.700 C 233.147 213.225,235.281 211.200,235.391 211.200 C 236.082 211.200,237.138 209.804,236.692 209.481 C 236.361 209.241,236.436 209.201,236.921 209.358 C 237.715 209.615,246.596 201.129,246.076 200.609 C 245.924 200.458,245.980 200.370,246.200 200.414 C 247.196 200.615,247.816 200.145,251.894 196.100 C 254.278 193.735,256.894 191.299,257.706 190.686 C 258.519 190.073,260.949 187.823,263.106 185.686 C 265.264 183.549,267.731 181.270,268.589 180.623 C 269.447 179.975,271.877 177.725,273.989 175.623 C 276.101 173.520,278.510 171.286,279.343 170.658 C 280.175 170.030,282.613 167.780,284.761 165.658 C 286.909 163.536,289.679 160.916,290.917 159.836 C 292.155 158.755,293.057 157.692,292.922 157.474 C 292.787 157.255,292.865 157.193,293.095 157.335 C 293.571 157.629,298.897 152.630,298.515 152.248 C 298.378 152.112,298.539 152.000,298.871 152.000 C 299.627 152.000,300.903 150.637,300.513 150.246 C 300.354 150.088,300.494 150.061,300.824 150.188 C 301.523 150.456,304.588 147.828,304.238 147.261 C 303.966 146.822,304.962 145.895,305.320 146.253 C 305.570 146.503,308.108 144.006,309.188 142.448 C 309.512 141.982,309.962 141.600,310.188 141.600 C 310.415 141.599,311.140 141.139,311.800 140.577 C 315.420 137.495,315.983 136.972,315.991 136.676 C 315.996 136.498,315.820 136.464,315.600 136.600 C 315.380 136.736,315.200 136.637,315.200 136.381 C 315.200 136.124,315.476 136.021,315.814 136.150 C 316.217 136.305,317.314 135.525,318.994 133.893 C 320.405 132.522,322.733 130.320,324.167 129.000 C 325.601 127.680,326.795 126.240,326.819 125.800 C 326.843 125.360,326.952 125.220,327.061 125.488 C 327.284 126.038,327.358 125.989,330.045 123.500 C 330.936 122.675,331.516 121.993,331.333 121.984 C 331.150 121.976,331.540 121.731,332.200 121.440 C 333.502 120.866,341.600 113.091,341.600 112.414 C 341.600 112.186,341.841 112.000,342.136 112.000 C 342.431 112.000,343.556 111.186,344.636 110.191 C 351.698 103.684,354.697 100.841,359.077 96.500 C 361.796 93.805,364.204 91.600,364.429 91.600 C 364.918 91.600,364.113 92.341,378.775 78.400 C 380.742 76.530,383.305 74.190,384.471 73.200 C 385.636 72.210,388.715 69.285,391.312 66.700 C 393.910 64.115,396.221 62.000,396.449 62.000 C 396.676 62.000,397.569 61.265,398.431 60.367 C 400.734 57.971,400.624 56.642,397.895 53.909 C 396.738 52.749,395.360 51.193,394.834 50.452 C 393.279 48.261,389.498 44.416,389.125 44.646 C 388.935 44.764,388.830 44.688,388.890 44.478 C 388.951 44.269,388.450 43.567,387.777 42.919 C 387.105 42.271,386.121 41.124,385.591 40.371 C 383.977 38.077,383.594 37.776,383.126 38.435 C 382.811 38.878,382.775 38.845,382.958 38.279 C 383.129 37.751,382.359 36.729,380.096 34.475 C 378.393 32.779,376.467 30.674,375.815 29.796 C 375.164 28.918,373.092 26.670,371.211 24.800 C 369.330 22.930,367.349 20.770,366.809 20.000 C 365.384 17.969,364.864 17.513,364.341 17.836 C 364.053 18.014,363.984 17.949,364.160 17.665 C 364.473 17.158,362.719 15.200,361.952 15.200 C 361.685 15.200,361.574 15.093,361.705 14.961 C 361.836 14.830,361.191 13.960,360.272 13.027 C 359.352 12.095,358.060 10.634,357.400 9.782 C 356.740 8.929,354.535 6.562,352.500 4.521 C 350.465 2.480,348.800 0.628,348.800 0.405 C 348.800 -0.485,345.661 -0.025,344.618 1.018 " stroke="none" fill="#043c44" fill-rule="evenodd"></path><path id="path1" d="" stroke="none" fill="#043c4c" fill-rule="evenodd"></path><path id="path2" d="" stroke="none" fill="#083c44" fill-rule="evenodd"></path><path id="path3" d="" stroke="none" fill="#083c44" fill-rule="evenodd"></path><path id="path4" d="" stroke="none" fill="#083c44" fill-rule="evenodd"></path></g></svg>