<svg width="273" height="273" viewBox="0 0 273 273" fill="none" xmlns="http://www.w3.org/2000/svg">
<path d="M136.109 140.5C134.945 140.5 133.828 140.963 133.005 141.786C132.181 142.609 131.719 143.726 131.719 144.891V232.703C131.719 233.868 132.181 234.984 133.005 235.808C133.828 236.631 134.945 237.094 136.109 237.094C137.274 237.094 138.391 236.631 139.214 235.808C140.037 234.984 140.5 233.868 140.5 232.703V144.891C140.5 143.726 140.037 142.609 139.214 141.786C138.391 140.963 137.274 140.5 136.109 140.5Z" fill="white"/>
<path d="M114.156 140.5C112.992 140.5 111.875 140.963 111.052 141.786C110.228 142.609 109.766 143.726 109.766 144.891V232.703C109.766 233.868 110.228 234.984 111.052 235.808C111.875 236.631 112.992 237.094 114.156 237.094C115.321 237.094 116.437 236.631 117.261 235.808C118.084 234.984 118.547 233.868 118.547 232.703V144.891C118.547 143.726 118.084 142.609 117.261 141.786C116.437 140.963 115.321 140.5 114.156 140.5Z" fill="white"/>
<path d="M92.2031 140.5C91.0387 140.5 89.9219 140.963 89.0985 141.786C88.2751 142.609 87.8125 143.726 87.8125 144.891V232.703C87.8125 233.868 88.2751 234.984 89.0985 235.808C89.9219 236.631 91.0387 237.094 92.2031 237.094C93.3676 237.094 94.4844 236.631 95.3078 235.808C96.1312 234.984 96.5938 233.868 96.5938 232.703V144.891C96.5938 143.726 96.1312 142.609 95.3078 141.786C94.4844 140.963 93.3676 140.5 92.2031 140.5Z" fill="white"/>
<path d="M70.25 140.5C69.0855 140.5 67.9688 140.963 67.1454 141.786C66.322 142.609 65.8594 143.726 65.8594 144.891V232.703C65.8594 233.868 66.322 234.984 67.1454 235.808C67.9688 236.631 69.0855 237.094 70.25 237.094C71.4145 237.094 72.5312 236.631 73.3546 235.808C74.178 234.984 74.6406 233.868 74.6406 232.703V144.891C74.6406 143.726 74.178 142.609 73.3546 141.786C72.5312 140.963 71.4145 140.5 70.25 140.5Z" fill="white"/>
<path d="M48.2969 140.5C47.1324 140.5 46.0156 140.963 45.1922 141.786C44.3688 142.609 43.9062 143.726 43.9062 144.891V232.703C43.9062 233.868 44.3688 234.984 45.1922 235.808C46.0156 236.631 47.1324 237.094 48.2969 237.094C49.4613 237.094 50.5781 236.631 51.4015 235.808C52.2249 234.984 52.6875 233.868 52.6875 232.703V144.891C52.6875 143.726 52.2249 142.609 51.4015 141.786C50.5781 140.963 49.4613 140.5 48.2969 140.5Z" fill="white"/>
<path d="M26.3438 140.5C25.1793 140.5 24.0625 140.963 23.2391 141.786C22.4157 142.609 21.9531 143.726 21.9531 144.891V232.703C21.9531 233.868 22.4157 234.984 23.2391 235.808C24.0625 236.631 25.1793 237.094 26.3438 237.094C27.5082 237.094 28.625 236.631 29.4484 235.808C30.2718 234.984 30.7344 233.868 30.7344 232.703V144.891C30.7344 143.726 30.2718 142.609 29.4484 141.786C28.625 140.963 27.5082 140.5 26.3438 140.5Z" fill="white"/>
<path d="M245.875 140.5C244.711 140.5 243.594 140.963 242.77 141.786C241.947 142.609 241.484 143.726 241.484 144.891V215.141C241.484 216.305 241.947 217.422 242.77 218.245C243.594 219.069 244.711 219.531 245.875 219.531C247.039 219.531 248.156 219.069 248.98 218.245C249.803 217.422 250.266 216.305 250.266 215.141V144.891C250.266 143.726 249.803 142.609 248.98 141.786C248.156 140.963 247.039 140.5 245.875 140.5Z" fill="white"/>
<path d="M223.922 140.5C222.757 140.5 221.641 140.963 220.817 141.786C219.994 142.609 219.531 143.726 219.531 144.891V232.703C219.531 233.868 219.994 234.984 220.817 235.808C221.641 236.631 222.757 237.094 223.922 237.094C225.086 237.094 226.203 236.631 227.027 235.808C227.85 234.984 228.312 233.868 228.312 232.703V144.891C228.312 143.726 227.85 142.609 227.027 141.786C226.203 140.963 225.086 140.5 223.922 140.5Z" fill="white"/>
<path d="M201.969 140.5C200.804 140.5 199.688 140.963 198.864 141.786C198.041 142.609 197.578 143.726 197.578 144.891V232.703C197.578 233.868 198.041 234.984 198.864 235.808C199.688 236.631 200.804 237.094 201.969 237.094C203.133 237.094 204.25 236.631 205.073 235.808C205.897 234.984 206.359 233.868 206.359 232.703V144.891C206.359 143.726 205.897 142.609 205.073 141.786C204.25 140.963 203.133 140.5 201.969 140.5Z" fill="white"/>
<path d="M180.016 140.5C178.851 140.5 177.734 140.963 176.911 141.786C176.088 142.609 175.625 143.726 175.625 144.891V232.703C175.625 233.868 176.088 234.984 176.911 235.808C177.734 236.631 178.851 237.094 180.016 237.094C181.18 237.094 182.297 236.631 183.12 235.808C183.944 234.984 184.406 233.868 184.406 232.703V144.891C184.406 143.726 183.944 142.609 183.12 141.786C182.297 140.963 181.18 140.5 180.016 140.5Z" fill="white"/>
<path d="M158.062 140.5C156.898 140.5 155.781 140.963 154.958 141.786C154.134 142.609 153.672 143.726 153.672 144.891V232.703C153.672 233.868 154.134 234.984 154.958 235.808C155.781 236.631 156.898 237.094 158.062 237.094C159.227 237.094 160.344 236.631 161.167 235.808C161.991 234.984 162.453 233.868 162.453 232.703V144.891C162.453 143.726 161.991 142.609 161.167 141.786C160.344 140.963 159.227 140.5 158.062 140.5Z" fill="white"/>
<path d="M245.875 223.922C244.711 223.922 243.594 224.384 242.77 225.208C241.947 226.031 241.484 227.148 241.484 228.312V232.703C241.484 233.868 241.947 234.984 242.77 235.808C243.594 236.631 244.711 237.094 245.875 237.094C247.039 237.094 248.156 236.631 248.98 235.808C249.803 234.984 250.266 233.868 250.266 232.703V228.312C250.266 227.148 249.803 226.031 248.98 225.208C248.156 224.384 247.039 223.922 245.875 223.922Z" fill="white"/>
<path d="M267.828 109.766H246.737L152.794 71.3312C153.544 69.0496 153.818 66.6384 153.599 64.2467C153.379 61.855 152.672 59.5337 151.519 57.4266C150.367 55.3194 148.794 53.4711 146.899 51.996C145.004 50.521 142.826 49.4507 140.5 48.8512V39.5156H144.891C146.055 39.5156 147.172 39.053 147.995 38.2296C148.819 37.4062 149.281 36.2895 149.281 35.125V26.3438H188.797C189.961 26.3438 191.078 25.8812 191.902 25.0578C192.725 24.2344 193.188 23.1176 193.188 21.9531V4.39062C193.188 3.22616 192.725 2.10939 191.902 1.28598C191.078 0.462582 189.961 0 188.797 0H83.4219C82.2574 0 81.1406 0.462582 80.3172 1.28598C79.4938 2.10939 79.0312 3.22616 79.0312 4.39062V21.9531C79.0312 23.1176 79.4938 24.2344 80.3172 25.0578C81.1406 25.8812 82.2574 26.3438 83.4219 26.3438H122.938V35.125C122.938 36.2895 123.4 37.4062 124.223 38.2296C125.047 39.053 126.164 39.5156 127.328 39.5156H131.719V52.6875C131.719 53.852 132.181 54.9687 133.005 55.7921C133.828 56.6155 134.945 57.0781 136.109 57.0781C137.846 57.0781 139.544 57.5931 140.988 58.558C142.432 59.5229 143.558 60.8944 144.222 62.4989C144.887 64.1035 145.061 65.8691 144.722 67.5725C144.383 69.2759 143.547 70.8406 142.319 72.0687C141.091 73.2967 139.526 74.1331 137.823 74.4719C136.119 74.8107 134.354 74.6368 132.749 73.9722C131.144 73.3076 129.773 72.182 128.808 70.738C127.843 69.2939 127.328 67.5961 127.328 65.8594C127.328 64.6949 126.866 63.5781 126.042 62.7547C125.219 61.9313 124.102 61.4688 122.938 61.4688C121.773 61.4688 120.656 61.9313 119.833 62.7547C119.009 63.5781 118.547 64.6949 118.547 65.8594C118.548 67.7183 118.844 69.5654 119.425 71.3312L25.4821 109.766H4.39062C3.22616 109.766 2.10939 110.228 1.28598 111.052C0.462582 111.875 0 112.992 0 114.156V267.828C0 268.993 0.462582 270.109 1.28598 270.933C2.10939 271.756 3.22616 272.219 4.39062 272.219H267.828C268.993 272.219 270.109 271.756 270.933 270.933C271.756 270.109 272.219 268.993 272.219 267.828V114.156C272.219 112.992 271.756 111.875 270.933 111.052C270.109 110.228 268.993 109.766 267.828 109.766ZM87.8125 17.5625V8.78125H184.406V17.5625H87.8125ZM131.719 30.7344V26.3438H140.5V30.7344H131.719ZM30.7344 117.103L124.288 78.8337C127.517 81.7853 131.734 83.422 136.109 83.422C140.485 83.422 144.702 81.7853 147.931 78.8337L241.484 117.103V122.938H30.7344V117.103ZM8.78125 118.547H21.9531V122.938H8.78125V118.547ZM263.438 263.438H8.78125V254.656H263.438V263.438ZM263.438 245.875H8.78125V131.719H263.438V245.875ZM263.438 122.938H250.266V118.547H263.438V122.938Z" fill="white"/>
</svg>
