<svg width="273" height="292" viewBox="0 0 273 292" fill="none" xmlns="http://www.w3.org/2000/svg">
<path d="M136.109 159.501C134.945 159.501 133.828 159.963 133.005 160.787C132.181 161.61 131.719 162.727 131.719 163.891V251.704C131.719 252.868 132.181 253.985 133.005 254.808C133.828 255.632 134.945 256.094 136.109 256.094C137.274 256.094 138.391 255.632 139.214 254.808C140.037 253.985 140.5 252.868 140.5 251.704V163.891C140.5 162.727 140.037 161.61 139.214 160.787C138.391 159.963 137.274 159.501 136.109 159.501Z" fill="#00A6BE"/>
<path d="M114.156 159.501C112.992 159.501 111.875 159.963 111.052 160.787C110.228 161.61 109.766 162.727 109.766 163.891V251.704C109.766 252.868 110.228 253.985 111.052 254.808C111.875 255.632 112.992 256.094 114.156 256.094C115.321 256.094 116.437 255.632 117.261 254.808C118.084 253.985 118.547 252.868 118.547 251.704V163.891C118.547 162.727 118.084 161.61 117.261 160.787C116.437 159.963 115.321 159.501 114.156 159.501Z" fill="#00A6BE"/>
<path d="M92.2031 159.501C91.0387 159.501 89.9219 159.963 89.0985 160.787C88.2751 161.61 87.8125 162.727 87.8125 163.891V251.704C87.8125 252.868 88.2751 253.985 89.0985 254.808C89.9219 255.632 91.0387 256.094 92.2031 256.094C93.3676 256.094 94.4844 255.632 95.3078 254.808C96.1312 253.985 96.5938 252.868 96.5938 251.704V163.891C96.5938 162.727 96.1312 161.61 95.3078 160.787C94.4844 159.963 93.3676 159.501 92.2031 159.501Z" fill="#00A6BE"/>
<path d="M70.25 159.501C69.0855 159.501 67.9688 159.963 67.1454 160.787C66.322 161.61 65.8594 162.727 65.8594 163.891V251.704C65.8594 252.868 66.322 253.985 67.1454 254.808C67.9688 255.632 69.0855 256.094 70.25 256.094C71.4145 256.094 72.5312 255.632 73.3546 254.808C74.178 253.985 74.6406 252.868 74.6406 251.704V163.891C74.6406 162.727 74.178 161.61 73.3546 160.787C72.5312 159.963 71.4145 159.501 70.25 159.501Z" fill="#00A6BE"/>
<path d="M48.2969 159.501C47.1324 159.501 46.0156 159.963 45.1922 160.787C44.3688 161.61 43.9062 162.727 43.9062 163.891V251.704C43.9062 252.868 44.3688 253.985 45.1922 254.808C46.0156 255.632 47.1324 256.094 48.2969 256.094C49.4613 256.094 50.5781 255.632 51.4015 254.808C52.2249 253.985 52.6875 252.868 52.6875 251.704V163.891C52.6875 162.727 52.2249 161.61 51.4015 160.787C50.5781 159.963 49.4613 159.501 48.2969 159.501Z" fill="#00A6BE"/>
<path d="M26.3438 159.501C25.1793 159.501 24.0625 159.963 23.2391 160.787C22.4157 161.61 21.9531 162.727 21.9531 163.891V251.704C21.9531 252.868 22.4157 253.985 23.2391 254.808C24.0625 255.632 25.1793 256.094 26.3438 256.094C27.5082 256.094 28.625 255.632 29.4484 254.808C30.2718 253.985 30.7344 252.868 30.7344 251.704V163.891C30.7344 162.727 30.2718 161.61 29.4484 160.787C28.625 159.963 27.5082 159.501 26.3438 159.501Z" fill="#00A6BE"/>
<path d="M245.875 159.501C244.711 159.501 243.594 159.963 242.77 160.787C241.947 161.61 241.484 162.727 241.484 163.891V234.141C241.484 235.306 241.947 236.422 242.77 237.246C243.594 238.069 244.711 238.532 245.875 238.532C247.039 238.532 248.156 238.069 248.98 237.246C249.803 236.422 250.266 235.306 250.266 234.141V163.891C250.266 162.727 249.803 161.61 248.98 160.787C248.156 159.963 247.039 159.501 245.875 159.501Z" fill="#00A6BE"/>
<path d="M223.922 159.501C222.757 159.501 221.641 159.963 220.817 160.787C219.994 161.61 219.531 162.727 219.531 163.891V251.704C219.531 252.868 219.994 253.985 220.817 254.808C221.641 255.632 222.757 256.094 223.922 256.094C225.086 256.094 226.203 255.632 227.027 254.808C227.85 253.985 228.312 252.868 228.312 251.704V163.891C228.312 162.727 227.85 161.61 227.027 160.787C226.203 159.963 225.086 159.501 223.922 159.501Z" fill="#00A6BE"/>
<path d="M201.969 159.501C200.804 159.501 199.688 159.963 198.864 160.787C198.041 161.61 197.578 162.727 197.578 163.891V251.704C197.578 252.868 198.041 253.985 198.864 254.808C199.688 255.632 200.804 256.094 201.969 256.094C203.133 256.094 204.25 255.632 205.073 254.808C205.897 253.985 206.359 252.868 206.359 251.704V163.891C206.359 162.727 205.897 161.61 205.073 160.787C204.25 159.963 203.133 159.501 201.969 159.501Z" fill="#00A6BE"/>
<path d="M180.016 159.501C178.851 159.501 177.734 159.963 176.911 160.787C176.088 161.61 175.625 162.727 175.625 163.891V251.704C175.625 252.868 176.088 253.985 176.911 254.808C177.734 255.632 178.851 256.094 180.016 256.094C181.18 256.094 182.297 255.632 183.12 254.808C183.944 253.985 184.406 252.868 184.406 251.704V163.891C184.406 162.727 183.944 161.61 183.12 160.787C182.297 159.963 181.18 159.501 180.016 159.501Z" fill="#00A6BE"/>
<path d="M158.062 159.501C156.898 159.501 155.781 159.963 154.958 160.787C154.134 161.61 153.672 162.727 153.672 163.891V251.704C153.672 252.868 154.134 253.985 154.958 254.808C155.781 255.632 156.898 256.094 158.062 256.094C159.227 256.094 160.344 255.632 161.167 254.808C161.991 253.985 162.453 252.868 162.453 251.704V163.891C162.453 162.727 161.991 161.61 161.167 160.787C160.344 159.963 159.227 159.501 158.062 159.501Z" fill="#00A6BE"/>
<path d="M245.875 242.923C244.711 242.923 243.594 243.385 242.77 244.209C241.947 245.032 241.484 246.149 241.484 247.313V251.704C241.484 252.868 241.947 253.985 242.77 254.808C243.594 255.632 244.711 256.094 245.875 256.094C247.039 256.094 248.156 255.632 248.98 254.808C249.803 253.985 250.266 252.868 250.266 251.704V247.313C250.266 246.149 249.803 245.032 248.98 244.209C248.156 243.385 247.039 242.923 245.875 242.923Z" fill="#00A6BE"/>
<path d="M272.219 143L30.7344 141.938H0V286.829C0 287.993 0.462582 289.11 1.28598 289.933C2.10939 290.757 3.22616 291.219 4.39062 291.219H267.828C268.993 291.219 270.109 290.757 270.933 289.933C271.756 289.11 272.219 287.993 272.219 286.829V143ZM263.438 282.438H8.78125V273.657H263.438V282.438ZM263.438 264.876H8.78125V150.719H263.438V264.876Z" fill="#00A6BE"/>
<path d="M112.87 25C111.706 25 110.589 25.4626 109.765 26.286C108.942 27.1094 108.479 28.2262 108.479 29.3906V113.203C108.479 114.368 108.942 115.484 109.765 116.308C110.589 117.131 111.706 117.594 112.87 117.594C114.035 117.594 115.151 117.131 115.975 116.308C116.798 115.484 117.261 114.368 117.261 113.203V29.3906C117.261 28.2262 116.798 27.1094 115.975 26.286C115.151 25.4626 114.035 25 112.87 25Z" fill="#E7F7F9"/>
<path d="M70.25 31.5C69.0855 31.5 67.9688 31.9626 67.1454 32.786C66.322 33.6094 65.8594 34.7262 65.8594 35.8906L65.8594 106.203C65.8594 107.368 66.322 108.484 67.1454 109.308C67.9688 110.131 69.0855 110.594 70.25 110.594C71.4145 110.594 72.5312 110.131 73.3546 109.308C74.178 108.484 74.6406 107.368 74.6406 106.203V35.8906C74.6406 34.7262 74.178 33.6094 73.3546 32.786C72.5312 31.9626 71.4145 31.5 70.25 31.5Z" fill="#E7F7F9"/>
<path d="M26.3438 0C25.1793 0 24.0625 0.462579 23.2391 1.28598C22.4157 2.10938 21.9531 3.22616 21.9531 4.39062L21.9531 76.6094C21.9531 77.7738 22.4157 78.8906 23.2391 79.714C24.0625 80.5374 25.1793 81 26.3438 81C27.5082 81 28.625 80.5374 29.4484 79.714C30.2718 78.8906 30.7344 77.7738 30.7344 76.6094V4.39062C30.7344 3.22616 30.2718 2.10938 29.4484 1.28598C28.625 0.462579 27.5082 0 26.3438 0Z" fill="#E7F7F9"/>
<path d="M245.875 20.5C244.711 20.5 243.594 20.9626 242.77 21.786C241.947 22.6094 241.484 23.7262 241.484 24.8906L241.484 89.6406C241.484 90.8051 241.947 91.9219 242.77 92.7453C243.594 93.5687 244.711 94.0312 245.875 94.0312C247.039 94.0312 248.156 93.5687 248.98 92.7453C249.803 91.9219 250.266 90.8051 250.266 89.6406V24.8906C250.266 23.7262 249.803 22.6094 248.98 21.786C248.156 20.9626 247.039 20.5 245.875 20.5Z" fill="#E7F7F9"/>
<path d="M201.969 45C200.804 45 199.688 45.4626 198.864 46.286C198.041 47.1094 197.578 48.2262 197.578 49.3906L197.578 117.203C197.578 118.368 198.041 119.484 198.864 120.308C199.688 121.131 200.804 121.594 201.969 121.594C203.133 121.594 204.25 121.131 205.073 120.308C205.897 119.484 206.359 118.368 206.359 117.203V49.3906C206.359 48.2262 205.897 47.1094 205.073 46.286C204.25 45.4626 203.133 45 201.969 45Z" fill="#E7F7F9"/>
<path d="M158.062 15C156.898 15 155.781 15.4626 154.958 16.286C154.134 17.1094 153.672 18.2262 153.672 19.3906V107.203C153.672 108.368 154.134 109.484 154.958 110.308C155.781 111.131 156.898 111.594 158.062 111.594C159.227 111.594 160.344 111.131 161.167 110.308C161.991 109.484 162.453 108.368 162.453 107.203V19.3906C162.453 18.2262 161.991 17.1094 161.167 16.286C160.344 15.4626 159.227 15 158.062 15Z" fill="#E7F7F9"/>
</svg>
