<svg width="20" height="20" viewBox="0 0 20 20" fill="none" xmlns="http://www.w3.org/2000/svg">
<path d="M14.1667 13.3333H15.8333V3.33333H7.5V5H14.1667V13.3333ZM14.1667 15V17.5C14.1667 17.96 13.7917 18.3333 13.3275 18.3333H3.33917C3.22927 18.334 3.12033 18.3129 3.0186 18.2714C2.91687 18.2298 2.82436 18.1685 2.74638 18.0911C2.6684 18.0136 2.60649 17.9216 2.56421 17.8201C2.52193 17.7187 2.50011 17.6099 2.5 17.5L2.5025 5.83333C2.5025 5.37333 2.8775 5 3.34167 5H5.83333V2.5C5.83333 2.27899 5.92113 2.06703 6.07741 1.91075C6.23369 1.75447 6.44565 1.66667 6.66667 1.66667H16.6667C16.8877 1.66667 17.0996 1.75447 17.2559 1.91075C17.4122 2.06703 17.5 2.27899 17.5 2.5V14.1667C17.5 14.3877 17.4122 14.5996 17.2559 14.7559C17.0996 14.9122 16.8877 15 16.6667 15H14.1667ZM4.16917 6.66667L4.16667 16.6667H12.5V6.66667H4.16917ZM5.83333 13.3333H9.58333C9.69384 13.3333 9.79982 13.2894 9.87796 13.2113C9.9561 13.1332 10 13.0272 10 12.9167C10 12.8062 9.9561 12.7002 9.87796 12.622C9.79982 12.5439 9.69384 12.5 9.58333 12.5H7.08333C6.5308 12.5 6.00089 12.2805 5.61019 11.8898C5.21949 11.4991 5 10.9692 5 10.4167C5 9.86413 5.21949 9.33423 5.61019 8.94353C6.00089 8.55283 6.5308 8.33333 7.08333 8.33333H7.5V7.5H9.16667V8.33333H10.8333V10H7.08333C6.97283 10 6.86685 10.0439 6.78871 10.122C6.71056 10.2002 6.66667 10.3062 6.66667 10.4167C6.66667 10.5272 6.71056 10.6332 6.78871 10.7113C6.86685 10.7894 6.97283 10.8333 7.08333 10.8333H9.58333C10.1359 10.8333 10.6658 11.0528 11.0565 11.4435C11.4472 11.8342 11.6667 12.3641 11.6667 12.9167C11.6667 13.4692 11.4472 13.9991 11.0565 14.3898C10.6658 14.7805 10.1359 15 9.58333 15H9.16667V15.8333H7.5V15H5.83333V13.3333Z" fill="#FF8FA4"/>
</svg>
