<svg width="171" height="253" viewBox="0 0 171 253" fill="none" xmlns="http://www.w3.org/2000/svg">
<g opacity="0.4">
<path fill-rule="evenodd" clip-rule="evenodd" d="M55.9105 238.111C48.008 228.411 36.084 213.35 24.1407 196.511C12.2875 180.147 1.61691 162.957 -7.7866 145.074C-17.6563 125.668 -22.6639 109.578 -22.6639 97.2239C-22.6882 84.2826 -20.1043 71.4688 -15.0661 59.5481C5.70921 10.3352 62.4395 -12.7256 111.659 8.0344C113.25 8.70843 114.359 10.18 114.571 11.8945C114.782 13.609 114.063 15.306 112.683 16.3459C111.304 17.3864 109.475 17.6112 107.885 16.9372C86.2264 7.85541 61.8278 7.85541 40.1695 16.9372C7.93632 30.599 -13.0004 62.2148 -12.9976 97.2239C-12.9976 108.041 -8.35755 122.657 0.825632 140.661C10.0179 158.138 20.446 174.936 32.0296 190.928C43.8132 207.555 55.5922 222.447 63.3979 232.012C65.9938 235.192 68.3279 238.005 70.3194 240.383C71.2489 241.444 72.5913 242.053 74.0022 242.053C75.4131 242.053 76.7555 241.445 77.685 240.383C79.6765 238.005 82.0112 235.192 84.6065 232.012C92.4122 222.442 104.191 207.55 115.975 190.928C127.558 174.936 137.987 158.138 147.179 140.661C156.352 122.657 161.002 108.041 161.002 97.2239C161.031 74.1156 151.862 51.9458 135.52 35.6083C134.265 34.3939 133.762 32.5967 134.206 30.9071C134.649 29.2175 135.97 27.8989 137.66 27.4577C139.35 27.0164 141.147 27.5217 142.36 28.7791C160.515 46.9268 170.702 71.5543 170.669 97.2245C170.669 109.578 165.661 125.668 155.792 145.05C146.387 162.941 135.717 180.139 123.863 196.511C111.915 213.35 99.9952 228.444 92.0978 238.111C90.9423 239.522 89.8645 240.832 88.8206 242.094H112.668C115.338 242.094 117.501 244.257 117.501 246.927C117.501 249.596 115.338 251.76 112.668 251.76H35.3352C32.6657 251.76 30.502 249.596 30.502 246.927C30.502 244.257 32.6657 242.094 35.3352 242.094H59.1827C58.1388 240.832 57.0609 239.523 55.9105 238.111ZM78.8353 48.7606C78.8353 51.4301 76.6716 53.5938 74.0022 53.5938C55.5554 53.5943 39.6773 66.6257 36.0794 84.7185C32.4816 102.811 42.1649 120.926 59.2076 127.985C76.2502 135.043 95.9063 129.08 106.154 113.742C116.402 98.4035 114.389 77.9624 101.344 64.9185C100.088 63.7047 99.584 61.9081 100.026 60.2179C100.469 58.5283 101.788 57.2086 103.478 56.7662C105.168 56.3239 106.965 56.828 108.179 58.0843C124.483 74.3895 127 99.9418 114.189 119.114C101.378 138.287 76.8076 145.74 55.5044 136.915C34.2012 128.091 22.0976 105.447 26.5966 82.8312C31.0956 60.2157 50.9437 43.9269 74.0022 43.9274C76.6716 43.9274 78.8353 46.0911 78.8353 48.7606Z" fill="#E7F7F9"/>
<path d="M24.1407 196.511L24.3446 196.366L24.3432 196.364L24.1407 196.511ZM55.9105 238.111L55.7167 238.269L55.7168 238.269L55.9105 238.111ZM-7.7866 145.074L-8.00946 145.187L-8.00788 145.19L-7.7866 145.074ZM-22.6639 97.2239H-22.4139L-22.4139 97.2234L-22.6639 97.2239ZM-15.0661 59.5481L-14.8358 59.6454L-14.8358 59.6453L-15.0661 59.5481ZM111.659 8.0344L111.757 7.80422L111.756 7.80405L111.659 8.0344ZM114.571 11.8945L114.323 11.925L114.571 11.8945ZM112.683 16.3459L112.533 16.1463L112.533 16.1463L112.683 16.3459ZM107.885 16.9372L107.982 16.707L107.981 16.7067L107.885 16.9372ZM40.1695 16.9372L40.0728 16.7067L40.0719 16.707L40.1695 16.9372ZM-12.9976 97.2239H-12.7476V97.2239L-12.9976 97.2239ZM0.825632 140.661L0.602911 140.775L0.604372 140.778L0.825632 140.661ZM32.0296 190.928L32.2336 190.784L32.2321 190.782L32.0296 190.928ZM63.3979 232.012L63.2042 232.17L63.2042 232.17L63.3979 232.012ZM70.3194 240.383L70.1277 240.544L70.1314 240.548L70.3194 240.383ZM77.685 240.383L77.8731 240.548L77.8767 240.544L77.685 240.383ZM84.6065 232.012L84.8002 232.17L84.8002 232.17L84.6065 232.012ZM115.975 190.928L115.772 190.782L115.771 190.784L115.975 190.928ZM147.179 140.661L147.4 140.778L147.402 140.775L147.179 140.661ZM161.002 97.2239L160.752 97.2236V97.2239H161.002ZM135.52 35.6083L135.697 35.4315L135.694 35.4286L135.52 35.6083ZM134.206 30.9071L134.448 30.9706V30.9706L134.206 30.9071ZM137.66 27.4577L137.597 27.2158H137.597L137.66 27.4577ZM142.36 28.7791L142.18 28.9527L142.183 28.9559L142.36 28.7791ZM170.669 97.2245L170.419 97.2242V97.2245H170.669ZM155.792 145.05L156.013 145.167L156.014 145.164L155.792 145.05ZM123.863 196.511L123.66 196.364L123.659 196.366L123.863 196.511ZM92.0978 238.111L92.2912 238.27L92.2914 238.269L92.0978 238.111ZM88.8206 242.094L88.628 241.934L88.2892 242.344H88.8206V242.094ZM59.1827 242.094V242.344H59.7141L59.3753 241.934L59.1827 242.094ZM74.0022 53.5938V53.3438H74.0022L74.0022 53.5938ZM36.0794 84.7185L35.8342 84.6697L36.0794 84.7185ZM59.2076 127.985L59.3032 127.754L59.2076 127.985ZM106.154 113.742L105.946 113.603L106.154 113.742ZM101.344 64.9185L101.521 64.7417L101.518 64.7388L101.344 64.9185ZM100.026 60.2179L99.7845 60.1546V60.1546L100.026 60.2179ZM103.478 56.7662L103.415 56.5244L103.415 56.5244L103.478 56.7662ZM108.179 58.0843L107.999 58.258L108.002 58.261L108.179 58.0843ZM114.189 119.114L114.397 119.253L114.189 119.114ZM55.5044 136.915L55.4087 137.146L55.5044 136.915ZM74.0022 43.9274L74.0022 44.1774H74.0022V43.9274ZM23.9368 196.655C35.8844 213.501 47.8122 228.566 55.7167 238.269L56.1044 237.953C48.2038 228.255 36.2835 213.199 24.3446 196.366L23.9368 196.655ZM-8.00788 145.19C1.40118 163.084 12.078 180.284 23.9382 196.657L24.3432 196.364C12.4969 180.01 1.83264 162.83 -7.56533 144.958L-8.00788 145.19ZM-22.9139 97.2239C-22.9139 109.637 -17.8853 125.77 -8.00944 145.187L-7.56377 144.961C-17.4273 125.567 -22.4139 109.519 -22.4139 97.2239H-22.9139ZM-15.2964 59.4508C-20.3476 71.4024 -22.9383 84.2495 -22.9139 97.2244L-22.4139 97.2234C-22.4382 84.3157 -19.8609 71.5351 -14.8358 59.6454L-15.2964 59.4508ZM111.756 7.80405C62.4095 -13.0096 5.53257 10.1107 -15.2964 59.4509L-14.8358 59.6453C5.88584 10.5596 62.4696 -12.4416 111.562 8.26475L111.756 7.80405ZM114.819 11.8639C114.597 10.0608 113.43 8.51312 111.757 7.80422L111.562 8.26458C113.07 8.90374 114.122 10.2991 114.323 11.925L114.819 11.8639ZM112.834 16.5455C114.284 15.4518 115.041 13.667 114.819 11.8639L114.323 11.925C114.523 13.5509 113.841 15.1601 112.533 16.1463L112.834 16.5455ZM107.787 17.1674C109.46 17.8762 111.383 17.6398 112.834 16.5455L112.533 16.1463C111.225 17.133 109.491 17.3462 107.982 16.707L107.787 17.1674ZM40.2662 17.1678C61.8626 8.1119 86.1916 8.1119 107.788 17.1678L107.981 16.7067C86.2613 7.59893 61.793 7.59893 40.0728 16.7067L40.2662 17.1678ZM-12.7476 97.2239C-12.7504 62.3151 8.1263 30.79 40.267 17.1674L40.0719 16.707C7.74634 30.408 -13.2504 62.1144 -13.2476 97.2239L-12.7476 97.2239ZM1.04834 140.548C-8.12981 122.553 -12.7476 107.981 -12.7476 97.2239H-13.2476C-13.2476 108.102 -8.58529 122.76 0.602928 140.775L1.04834 140.548ZM32.2321 190.782C20.6555 174.799 10.2336 158.011 1.04689 140.545L0.604372 140.778C9.80215 158.265 20.2366 175.073 31.8272 191.075L32.2321 190.782ZM63.5916 231.854C55.7881 222.291 44.0128 207.404 32.2336 190.784L31.8257 191.073C43.6136 207.705 55.3964 222.602 63.2042 232.17L63.5916 231.854ZM70.5111 240.223C68.5202 237.845 66.1867 235.033 63.5916 231.853L63.2042 232.17C65.8008 235.351 68.1357 238.165 70.1278 240.544L70.5111 240.223ZM74.0022 241.803C72.6633 241.803 71.3895 241.225 70.5075 240.218L70.1314 240.548C71.1083 241.663 72.5192 242.303 74.0022 242.303V241.803ZM77.4969 240.218C76.6149 241.226 75.3411 241.803 74.0022 241.803V242.303C75.4851 242.303 76.8961 241.663 77.8731 240.548L77.4969 240.218ZM84.4128 231.854C81.8183 235.033 79.4843 237.845 77.4933 240.223L77.8767 240.544C79.8687 238.165 82.2041 235.351 84.8002 232.17L84.4128 231.854ZM115.771 190.784C103.992 207.399 92.2163 222.286 84.4128 231.854L84.8002 232.17C92.608 222.597 104.391 207.701 116.179 191.073L115.771 190.784ZM146.958 140.545C137.771 158.011 127.349 174.799 115.772 190.782L116.177 191.075C127.768 175.073 138.202 158.265 147.4 140.778L146.958 140.545ZM160.752 97.2239C160.752 107.981 156.125 122.553 146.956 140.548L147.402 140.775C156.58 122.761 161.252 108.102 161.252 97.2239H160.752ZM135.344 35.7851C151.639 52.0756 160.781 74.1817 160.752 97.2236L161.252 97.2242C161.281 74.0495 152.086 51.8159 135.697 35.4315L135.344 35.7851ZM133.964 30.8436C133.498 32.6206 134.026 34.5108 135.347 35.788L135.694 35.4286C134.503 34.277 134.027 32.5728 134.448 30.9706L133.964 30.8436ZM137.597 27.2158C135.82 27.6798 134.43 29.0666 133.964 30.8436L134.448 30.9706C134.868 29.3684 136.121 28.118 137.723 27.6996L137.597 27.2158ZM142.54 28.6056C141.264 27.2831 139.375 26.7517 137.597 27.2158L137.723 27.6996C139.326 27.2812 141.03 27.7603 142.18 28.9527L142.54 28.6056ZM170.919 97.2248C170.952 71.4882 160.739 46.797 142.537 28.6023L142.183 28.9559C160.292 47.0567 170.452 71.6204 170.419 97.2242L170.919 97.2248ZM156.014 145.164C165.89 125.77 170.919 109.637 170.919 97.2245H170.419C170.419 109.519 165.432 125.567 155.569 144.937L156.014 145.164ZM124.065 196.657C135.926 180.276 146.603 163.068 156.013 145.167L155.57 144.934C146.171 162.815 135.507 180.002 123.66 196.364L124.065 196.657ZM92.2914 238.269C100.191 228.6 112.114 213.501 124.066 196.655L123.659 196.366C111.715 213.199 99.7993 228.289 91.9042 237.953L92.2914 238.269ZM89.0132 242.253C90.0574 240.991 91.1355 239.681 92.2912 238.27L91.9044 237.953C90.7492 239.363 89.6715 240.673 88.628 241.934L89.0132 242.253ZM112.668 241.844H88.8206V242.344H112.668V241.844ZM117.751 246.927C117.751 244.119 115.476 241.844 112.668 241.844V242.344C115.199 242.344 117.251 244.395 117.251 246.927H117.751ZM112.668 252.01C115.476 252.01 117.751 249.734 117.751 246.927H117.251C117.251 249.458 115.199 251.51 112.668 251.51V252.01ZM35.3352 252.01H112.668V251.51H35.3352V252.01ZM30.252 246.927C30.252 249.734 32.5276 252.01 35.3352 252.01V251.51C32.8038 251.51 30.752 249.458 30.752 246.927H30.252ZM35.3352 241.844C32.5276 241.844 30.252 244.119 30.252 246.927H30.752C30.752 244.395 32.8038 242.344 35.3352 242.344V241.844ZM59.1827 241.844H35.3352V242.344H59.1827V241.844ZM55.7168 238.269C56.8676 239.681 57.9459 240.991 58.9901 242.253L59.3753 241.934C58.3317 240.673 57.2542 239.364 56.1043 237.953L55.7168 238.269ZM74.0022 53.8438C76.8097 53.8438 79.0853 51.5682 79.0853 48.7606H78.5853C78.5853 51.292 76.5336 53.3438 74.0022 53.3438V53.8438ZM36.3246 84.7672C39.8992 66.7914 55.6746 53.8443 74.0022 53.8438L74.0022 53.3438C55.4361 53.3443 39.4553 66.46 35.8342 84.6697L36.3246 84.7672ZM59.3032 127.754C42.3708 120.741 32.7501 102.743 36.3246 84.7672L35.8342 84.6697C32.2131 102.879 41.9591 121.111 59.1119 128.216L59.3032 127.754ZM105.946 113.603C95.7647 128.842 76.2357 134.767 59.3032 127.754L59.1119 128.216C76.2648 135.32 96.0479 129.318 106.362 113.881L105.946 113.603ZM101.168 65.0953C114.128 78.0548 116.128 98.3638 105.946 113.603L106.362 113.881C116.676 98.4432 114.65 77.8699 101.521 64.7418L101.168 65.0953ZM99.7845 60.1546C99.3193 61.9322 99.8495 63.8218 101.171 65.0983L101.518 64.7388C100.327 63.5877 99.8487 61.8839 100.268 60.2812L99.7845 60.1546ZM103.415 56.5244C101.638 56.9896 100.25 58.3776 99.7845 60.1546L100.268 60.2812C100.688 58.679 101.939 57.4276 103.541 57.0081L103.415 56.5244ZM108.358 57.9105C107.082 56.5893 105.192 56.0591 103.415 56.5244L103.541 57.0081C105.144 56.5886 106.848 57.0666 107.999 58.258L108.358 57.9105ZM114.397 119.253C127.274 99.9816 124.744 74.297 108.355 57.9075L108.002 58.261C124.222 74.4819 126.726 99.9021 113.981 118.975L114.397 119.253ZM55.4087 137.146C76.8221 146.017 101.519 138.525 114.397 119.253L113.981 118.975C101.236 138.049 76.7931 145.463 55.6001 136.684L55.4087 137.146ZM26.3514 82.7824C21.8292 105.515 33.9954 128.276 55.4087 137.146L55.6001 136.684C34.4071 127.905 22.3661 105.379 26.8418 82.88L26.3514 82.7824ZM74.0022 43.6774C50.8244 43.6769 30.8737 60.0499 26.3514 82.7824L26.8418 82.88C31.3175 60.3814 51.063 44.1769 74.0022 44.1774L74.0022 43.6774ZM79.0853 48.7606C79.0853 45.953 76.8097 43.6774 74.0022 43.6774V44.1774C76.5336 44.1774 78.5853 46.2292 78.5853 48.7606H79.0853Z" fill="#E7F7F9"/>
</g>
</svg>
