<svg width="195" height="253" viewBox="0 0 195 253" fill="none" xmlns="http://www.w3.org/2000/svg">
<path fill-rule="evenodd" clip-rule="evenodd" d="M79.5746 238.707C71.6721 229.006 59.7481 213.945 47.8048 197.106C35.9515 180.742 25.281 163.553 15.8775 145.669C6.00779 126.264 1.00017 110.173 1.00017 97.8192C0.975815 84.8779 3.55977 72.0641 8.59797 60.1434C29.3733 10.9305 86.1036 -12.1303 135.323 8.62972C136.914 9.30375 138.023 10.7753 138.235 12.4898C138.446 14.2043 137.727 15.9013 136.347 16.9412C134.968 17.9817 133.139 18.2066 131.549 17.5325C109.89 8.45074 85.4919 8.45074 63.8335 17.5325C31.6004 31.1943 10.6637 62.8101 10.6665 97.8192C10.6665 108.636 15.3065 123.252 24.4897 141.257C33.6819 158.733 44.1101 175.532 55.6937 191.524C67.4773 208.15 79.2563 223.042 87.062 232.607C89.6578 235.787 91.992 238.601 93.9835 240.978C94.913 242.039 96.2553 242.648 97.6663 242.648C99.0772 242.648 100.42 242.04 101.349 240.978C103.341 238.6 105.675 235.787 108.271 232.607C116.076 223.037 127.855 208.145 139.639 191.524C151.222 175.532 161.651 158.733 170.843 141.257C180.016 123.252 184.666 108.636 184.666 97.8192C184.695 74.7109 175.526 52.5411 159.184 36.2036C157.929 34.9892 157.426 33.192 157.87 31.5024C158.313 29.8128 159.634 28.4942 161.324 28.053C163.015 27.6118 164.811 28.117 166.024 29.3744C184.179 47.5222 194.366 72.1496 194.333 97.8198C194.333 110.174 189.325 126.264 179.456 145.646C170.051 163.537 159.381 180.734 147.527 197.106C135.579 213.945 123.659 229.04 115.762 238.707C114.606 240.117 113.529 241.428 112.485 242.689H136.332C139.002 242.689 141.165 244.853 141.165 247.522C141.165 250.192 139.002 252.355 136.332 252.355H58.9993C56.3298 252.355 54.1661 250.192 54.1661 247.522C54.1661 244.853 56.3298 242.689 58.9993 242.689H82.8468C81.8029 241.428 80.725 240.118 79.5746 238.707ZM102.499 49.3559C102.499 52.0254 100.336 54.1891 97.6662 54.1891C79.2194 54.1897 63.3413 67.221 59.7435 85.3138C56.1457 103.407 65.829 121.521 82.8716 128.58C99.9143 135.639 119.57 129.675 129.818 114.337C140.066 98.9988 138.053 78.5577 125.008 65.5139C123.752 64.3 123.248 62.5034 123.69 60.8132C124.133 59.1236 125.453 57.8039 127.142 57.3615C128.832 56.9192 130.629 57.4233 131.843 58.6796C148.147 74.9848 150.664 100.537 137.853 119.71C125.042 138.882 100.472 146.335 79.1685 137.511C57.8653 128.686 45.7617 106.042 50.2607 83.4265C54.7597 60.811 74.6077 44.5222 97.6662 44.5228C100.336 44.5228 102.499 46.6864 102.499 49.3559Z" fill="white"/>
<path fill-rule="evenodd" clip-rule="evenodd" d="M8.36766 60.0463C29.1966 10.7061 86.0736 -12.4142 135.421 8.39944C137.093 9.10834 138.261 10.6562 138.483 12.4593C138.705 14.2624 137.948 16.0472 136.498 17.1409C135.048 18.235 133.125 18.4716 131.452 17.7631C109.856 8.70738 85.5272 8.70728 63.9309 17.7628C31.7903 31.3855 10.9137 62.9106 10.9165 97.8193C10.9165 108.576 15.534 123.148 24.7116 141.141C33.8981 158.607 44.3198 175.395 55.8962 191.377L55.8977 191.379C67.6769 207.999 79.4521 222.887 87.2557 232.449C89.8499 235.627 92.1827 238.439 94.1732 240.816C95.0551 241.821 96.3283 242.398 97.6663 242.398C99.0043 242.398 100.277 241.822 101.159 240.816C103.15 238.438 105.483 235.627 108.077 232.449C115.88 222.881 127.656 207.995 139.435 191.379L139.436 191.377C151.013 175.395 161.435 158.607 170.621 141.141C179.789 123.147 184.416 108.576 184.416 97.8193C184.445 74.778 175.303 52.6723 159.009 36.3819C157.69 35.1047 157.162 33.2153 157.628 31.439C158.094 29.662 159.484 28.2752 161.261 27.8112C163.038 27.3473 164.927 27.878 166.202 29.1991C184.404 47.3936 194.616 72.0842 194.583 97.8202C194.583 110.233 189.554 126.365 179.678 145.759L179.677 145.762C170.267 163.664 159.591 180.871 147.729 197.253C135.778 214.097 123.855 229.195 115.955 238.865C114.924 240.124 113.955 241.303 113.016 242.439H136.332C139.14 242.439 141.415 244.715 141.415 247.522C141.415 250.33 139.14 252.605 136.332 252.605H58.9993C56.1917 252.605 53.9161 250.33 53.9161 247.522C53.9161 244.715 56.1917 242.439 58.9993 242.439H82.3156C81.3769 241.303 80.4077 240.125 79.3808 238.865C71.4765 229.162 59.549 214.097 47.6016 197.252C35.7417 180.878 25.0651 163.679 15.6562 145.786L15.6546 145.783C5.77887 126.365 0.750234 110.232 0.750171 97.8195C0.725784 84.8447 3.31643 71.9977 8.36766 60.0463ZM135.226 8.85997C86.1333 -11.8461 29.5498 11.1551 8.82829 60.2407C3.80317 72.1304 1.22588 84.9111 1.25017 97.8188C1.25017 110.113 6.2365 126.162 16.0995 145.555C25.4973 163.427 36.1613 180.605 48.0072 196.96L48.0087 196.962C59.9476 213.795 71.8679 228.851 79.7684 238.549C80.9183 239.96 81.9958 241.269 83.0394 242.53L83.3782 242.939H58.9993C56.4678 242.939 54.4161 244.991 54.4161 247.522C54.4161 250.054 56.4678 252.105 58.9993 252.105H136.332C138.864 252.105 140.915 250.054 140.915 247.522C140.915 244.991 138.864 242.939 136.332 242.939H111.953L112.292 242.53C113.336 241.269 114.413 239.959 115.568 238.548C123.463 228.884 135.379 213.795 147.323 196.961L147.324 196.96C159.171 180.598 169.834 163.411 179.233 145.531C189.096 126.162 194.083 110.115 194.083 97.8199C194.116 72.2161 183.956 47.6521 165.847 29.5513L165.844 29.548C164.694 28.3556 162.99 27.8766 161.387 28.295C159.785 28.7134 158.532 29.9638 158.112 31.566C157.691 33.1682 158.167 34.8724 159.358 36.024L159.361 36.0269C175.75 52.4113 184.945 74.6448 184.916 97.8196C184.916 108.697 180.244 123.356 171.066 141.37L171.064 141.373C161.866 158.86 151.432 175.668 139.842 191.67C128.054 208.297 116.272 223.193 108.464 232.765C105.868 235.946 103.533 238.76 101.541 241.139L101.537 241.143C100.56 242.259 99.1492 242.898 97.6663 242.898C96.1833 242.898 94.7724 242.258 93.7954 241.143L93.7918 241.139C91.7997 238.76 89.4649 235.946 86.8683 232.765C79.0606 223.198 67.278 208.301 55.4902 191.669C43.9 175.668 33.466 158.86 24.2684 141.373L24.267 141.37C15.0788 123.356 10.4165 108.697 10.4165 97.8193C10.4137 62.7098 31.4104 31.0034 63.736 17.3024C85.4562 8.19469 109.925 8.19432 131.646 17.302C133.154 17.9412 134.889 17.7283 136.197 16.7417C137.505 15.7556 138.187 14.1463 137.987 12.5204C137.786 10.8945 136.734 9.49912 135.226 8.85997ZM50.0155 83.3778C54.5377 60.6453 74.4885 44.2723 97.6662 44.2728C100.474 44.2728 102.749 46.5484 102.749 49.356C102.749 52.1635 100.474 54.4392 97.6662 54.4392C79.3387 54.4397 63.5633 67.3868 59.9887 85.3626C56.4141 103.338 66.0348 121.336 82.9673 128.349C99.8998 135.362 119.429 129.437 129.611 114.198C139.792 98.9597 137.792 78.6517 124.833 65.6922C123.513 64.4156 122.984 62.5269 123.449 60.75C123.914 58.973 125.302 57.585 127.079 57.1198C128.856 56.6547 130.745 57.1844 132.021 58.5047C148.409 74.8943 150.938 100.578 138.061 119.848C125.183 139.12 100.486 146.612 79.0728 137.742C57.6594 128.871 45.4932 106.11 50.0155 83.3778ZM97.6662 44.7728C74.727 44.7723 54.9816 60.9768 50.5059 83.4754C46.0302 105.974 58.0711 128.501 79.2641 137.28C100.457 146.059 124.9 138.644 137.645 119.571C150.39 100.497 147.886 75.0773 131.666 58.8564L131.663 58.8534C130.512 57.662 128.808 57.184 127.205 57.6035C125.603 58.0229 124.352 59.2744 123.932 60.8766C123.513 62.4793 123.991 64.1831 125.182 65.3341L125.185 65.3371C138.314 78.4653 140.341 99.0386 130.026 114.476C119.712 129.914 99.9288 135.915 82.776 128.811C65.6231 121.707 55.8772 103.475 59.4983 85.2651C63.1194 67.0553 79.1002 53.9397 97.6662 53.9392C100.198 53.9392 102.249 51.8874 102.249 49.356C102.249 46.8246 100.198 44.7728 97.6662 44.7728Z" fill="white"/>
</svg>
