<svg width="473" height="312" viewBox="0 0 473 312" fill="none" xmlns="http://www.w3.org/2000/svg">
<path d="M470.984 161.07C468.609 157.331 464.546 155.098 460.116 155.098H401.669C391.25 155.098 382.772 163.575 382.772 173.994C382.772 174.2 382.756 174.403 382.732 174.603V130.044C382.732 123.642 377.522 118.432 371.121 118.432H320.517V66.668C320.517 61.7369 316.505 57.7249 311.574 57.7249H191.18C186.248 57.7249 182.235 61.7369 182.235 66.668V179.038H160.819V138.161C165.844 138.149 169.927 134.06 169.927 129.033V112.114C169.927 107.079 165.832 102.984 160.797 102.984H140.204V52.0784C140.204 46.3775 135.566 41.7395 129.865 41.7395H100.151V7.72597C100.151 3.86054 97.0172 0.727081 93.1517 0.727081C89.2863 0.727081 86.1529 3.86054 86.1529 7.72597V41.7405H56.4389C50.738 41.7405 46.1001 46.3784 46.1001 52.0793V102.984H25.5053C20.471 102.984 16.3751 107.08 16.3751 112.115V129.034C16.3751 134.061 20.459 138.151 25.4832 138.162V179.039H12.9872C9.35497 179.039 5.9597 180.657 3.67344 183.478C1.38996 186.294 0.510485 189.941 1.25997 193.486C6.29065 217.295 18.4733 240.516 36.4913 260.638C37.4501 261.71 38.0493 262.999 38.3028 264.353C38.372 264.721 38.4116 265.091 38.4273 265.459C38.4291 265.499 38.4347 265.541 38.4356 265.581C38.4457 265.93 38.4236 266.276 38.3876 266.619C38.3803 266.685 38.3812 266.751 38.372 266.817C38.3296 267.136 38.2567 267.448 38.1747 267.76C38.1526 267.843 38.1424 267.927 38.1175 268.009C38.0023 268.394 37.8594 268.772 37.6833 269.14L26.3811 292.802C24.4599 296.825 24.7319 301.479 27.1103 305.251C29.4888 309.022 33.5699 311.273 38.029 311.273H398.844C403.811 311.273 408.386 308.368 410.497 303.872L471.768 173.445C473.653 169.437 473.359 164.809 470.984 161.07ZM320.516 132.284H368.881V179.039H320.516V132.284ZM258.3 71.5752H306.666V118.432H258.3V71.5752ZM258.3 132.284H306.666V179.039H258.3V132.284ZM196.086 71.5752H244.451V118.432H196.086V71.5752ZM196.086 132.284H244.451V179.039H196.086V132.284ZM59.9503 55.5907H126.354V102.984H59.9503V55.5907ZM30.2263 116.835H156.076V124.313H77.7527C73.9278 124.313 70.8276 127.413 70.8276 131.238C70.8276 135.063 73.9278 138.163 77.7527 138.163H146.969V179.039H39.3344V138.163H45.1874C49.0123 138.163 52.1125 135.063 52.1125 131.238C52.1125 127.413 49.0123 124.313 45.1874 124.313H30.2263V116.835ZM417.654 256.068H349.004C345.179 256.068 342.079 259.168 342.079 262.993C342.079 266.818 345.179 269.918 349.004 269.918H411.148L398.226 297.424H39.5234L50.1812 275.11C50.4015 274.649 50.6007 274.182 50.786 273.711C50.844 273.564 50.8938 273.415 50.9491 273.267C51.069 272.943 51.1851 272.618 51.2884 272.29C51.3465 272.107 51.3981 271.924 51.4516 271.74C51.5355 271.45 51.6138 271.159 51.6848 270.867C51.7364 270.653 51.7853 270.44 51.8305 270.226C51.8517 270.123 51.8802 270.021 51.9005 269.919H316.438C320.263 269.919 323.363 266.819 323.363 262.994C323.363 259.169 320.263 256.069 316.438 256.069H49.9839C49.1441 254.408 48.0932 252.833 46.8099 251.4C30.7499 233.465 20.1621 213.792 15.3121 192.89L375.806 192.992C376.196 192.992 377.354 192.952 377.726 192.89C388.145 192.89 396.622 184.413 396.622 173.994C396.622 171.212 398.885 168.948 401.668 168.948H458.58L417.654 256.068Z" fill="white"/>
</svg>
